<svg width="64" height="64" viewBox="0 0 64 64" fill="none" xmlns="http://www.w3.org/2000/svg">
<path d="M5.95631 16.2925C4.67779 17.0367 4.6821 18.894 5.96407 19.6322L13.2428 23.8236C13.9308 24.2197 14.3552 24.9559 14.3552 25.753L14.3547 45.2966C14.3547 45.9859 14.7209 46.6227 15.3151 46.9666L25.7098 52.9827C26.9876 53.7223 28.5828 52.795 28.5828 51.3127L28.5832 29.9195C28.5832 29.783 28.5991 29.6471 28.6098 29.511C28.6138 29.4605 28.616 29.4093 28.6161 29.3574L28.6519 17.3082C28.654 16.6123 28.2828 15.9694 27.6807 15.6262L18.2391 10.2434C17.6472 9.90604 16.9218 9.90932 16.3331 10.252L5.95631 16.2925Z" fill="#1ECECA"/>
<path d="M55.8326 1.19602C56.791 0.639313 57.9892 1.33462 57.99 2.44803L58 15.1594C58.0004 15.6768 57.7262 16.1551 57.2809 16.4137L44.6742 23.7364C44.2281 23.9955 43.6782 23.9948 43.2328 23.7345L32.3177 17.3574C31.3616 16.7988 31.3634 15.409 32.3209 14.8529L55.8326 1.19602Z" fill="#1ECECA"/>
<path d="M55.8326 20.7308C56.791 20.1741 57.9891 20.8694 57.99 21.9828L58 34.6942C58.0004 35.2116 57.7262 35.6898 57.2808 35.9485L44.6742 43.2711C44.228 43.5303 43.6782 43.5296 43.2327 43.2693L32.3177 36.8921C31.3616 36.3335 31.3634 34.9438 32.3208 34.3876L55.8326 20.7308Z" fill="#1ECECA"/>
<path d="M55.8326 40.2658C56.791 39.7091 57.9892 40.4044 57.99 41.5178L58 54.2292C58.0004 54.7466 57.7262 55.2248 57.2809 55.4835L44.6742 62.8061C44.2281 63.0653 43.6782 63.0646 43.2328 62.8043L32.3177 56.4271C31.3616 55.8686 31.3634 54.4788 32.3209 53.9227L55.8326 40.2658Z" fill="#1ECECA"/>
</svg>
